<svg width="603" height="191" viewBox="0 0 603 191" fill="none" xmlns="http://www.w3.org/2000/svg">
<path d="M132.528 52.5372L98.4719 32.8094C95.2367 30.9636 91.6451 30 88 30C84.3549 30 80.7633 30.9636 77.5281 32.8094L43.472 52.5372C40.379 54.2233 37.7667 56.8105 35.9201 60.0165C34.0734 63.2226 33.0634 66.9241 33 70.7177V110.173C33.0634 113.967 34.0734 117.669 35.9201 120.874C37.7667 124.081 40.379 126.668 43.472 128.354L77.5281 148.082C80.7633 149.927 84.3549 150.891 88 150.891C91.6451 150.891 95.2367 149.927 98.4719 148.082L132.528 128.354C135.621 126.668 138.233 124.081 140.08 120.874C141.926 117.669 142.937 113.967 143 110.173V70.7177C142.937 66.9241 141.926 63.2226 140.08 60.0165C138.233 56.8105 135.621 54.2233 132.528 52.5372ZM125.928 122.938H50.116C42.482 122.938 37.686 114.622 41.514 107.997L79.3981 42.0931C80.3589 40.5622 81.6437 39.3107 83.1422 38.4461C84.6407 37.5816 86.3076 37.1299 88 37.1299C89.6924 37.1299 91.3593 37.5816 92.8578 38.4461C94.3563 39.3107 95.6411 40.5622 96.6019 42.0931L134.486 107.997C138.314 114.622 133.518 122.938 125.884 122.938H125.928Z" fill="#F1F5F9"/>
<path d="M175.344 71.1612V60.4545H221.446V71.1612H204.907V115H191.91V71.1612H175.344ZM223.385 115V60.4545H261.418V71.1612H236.569V82.3473H259.473V93.0806H236.569V104.293H261.418V115H223.385ZM294.657 76.8075C294.48 74.8544 293.69 73.3363 292.287 72.2532C290.902 71.1523 288.922 70.6019 286.348 70.6019C284.643 70.6019 283.223 70.8239 282.086 71.2678C280.95 71.7116 280.098 72.3242 279.53 73.1055C278.961 73.869 278.668 74.7479 278.651 75.7422C278.615 76.5589 278.775 77.2781 279.13 77.8995C279.503 78.521 280.036 79.0714 280.728 79.5508C281.438 80.0124 282.291 80.4208 283.285 80.7759C284.279 81.131 285.398 81.4418 286.641 81.7081L291.328 82.7734C294.027 83.3594 296.406 84.1406 298.466 85.1172C300.543 86.0938 302.283 87.2567 303.686 88.6062C305.107 89.9556 306.181 91.5092 306.909 93.267C307.637 95.0249 308.01 96.9957 308.027 99.1797C308.01 102.624 307.14 105.581 305.417 108.049C303.695 110.517 301.218 112.408 297.987 113.722C294.773 115.036 290.893 115.692 286.348 115.692C281.785 115.692 277.807 115.009 274.416 113.642C271.025 112.275 268.388 110.197 266.506 107.409C264.624 104.622 263.656 101.097 263.603 96.8359H276.227C276.334 98.5938 276.804 100.059 277.639 101.23C278.473 102.402 279.618 103.29 281.074 103.894C282.548 104.498 284.253 104.799 286.188 104.799C287.964 104.799 289.473 104.56 290.716 104.08C291.976 103.601 292.944 102.935 293.619 102.083C294.293 101.23 294.64 100.254 294.657 99.1531C294.64 98.1232 294.32 97.2443 293.699 96.5163C293.077 95.7706 292.118 95.1314 290.822 94.5987C289.544 94.0483 287.91 93.5423 285.922 93.0806L280.222 91.7489C275.499 90.6658 271.779 88.9169 269.063 86.5021C266.346 84.0696 264.997 80.7848 265.014 76.6477C264.997 73.2741 265.902 70.3178 267.731 67.7788C269.56 65.2397 272.09 63.2599 275.321 61.8395C278.553 60.419 282.237 59.7088 286.374 59.7088C290.6 59.7088 294.267 60.4279 297.374 61.8661C300.499 63.2866 302.923 65.2841 304.645 67.8587C306.367 70.4332 307.246 73.4162 307.282 76.8075H294.657ZM339.669 76.8075C339.492 74.8544 338.701 73.3363 337.299 72.2532C335.914 71.1523 333.934 70.6019 331.359 70.6019C329.655 70.6019 328.234 70.8239 327.098 71.2678C325.962 71.7116 325.109 72.3242 324.541 73.1055C323.973 73.869 323.68 74.7479 323.662 75.7422C323.627 76.5589 323.787 77.2781 324.142 77.8995C324.515 78.521 325.047 79.0714 325.74 79.5508C326.45 80.0124 327.302 80.4208 328.297 80.7759C329.291 81.131 330.41 81.4418 331.652 81.7081L336.34 82.7734C339.039 83.3594 341.418 84.1406 343.478 85.1172C345.555 86.0938 347.295 87.2567 348.698 88.6062C350.118 89.9556 351.193 91.5092 351.921 93.267C352.649 95.0249 353.021 96.9957 353.039 99.1797C353.021 102.624 352.151 105.581 350.429 108.049C348.707 110.517 346.23 112.408 342.998 113.722C339.785 115.036 335.905 115.692 331.359 115.692C326.796 115.692 322.819 115.009 319.428 113.642C316.036 112.275 313.4 110.197 311.517 107.409C309.635 104.622 308.668 101.097 308.614 96.8359H321.239C321.345 98.5938 321.816 100.059 322.65 101.23C323.485 102.402 324.63 103.29 326.086 103.894C327.56 104.498 329.264 104.799 331.2 104.799C332.975 104.799 334.484 104.56 335.727 104.08C336.988 103.601 337.956 102.935 338.63 102.083C339.305 101.23 339.651 100.254 339.669 99.1531C339.651 98.1232 339.332 97.2443 338.71 96.5163C338.089 95.7706 337.13 95.1314 335.834 94.5987C334.555 94.0483 332.922 93.5423 330.933 93.0806L325.234 91.7489C320.511 90.6658 316.791 88.9169 314.074 86.5021C311.358 84.0696 310.008 80.7848 310.026 76.6477C310.008 73.2741 310.914 70.3178 312.743 67.7788C314.571 65.2397 317.102 63.2599 320.333 61.8395C323.565 60.419 327.249 59.7088 331.386 59.7088C335.612 59.7088 339.278 60.4279 342.386 61.8661C345.511 63.2866 347.934 65.2841 349.657 67.8587C351.379 70.4332 352.258 73.4162 352.293 76.8075H339.669ZM355.198 115V60.4545H393.23V71.1612H368.381V82.3473H391.286V93.0806H368.381V104.293H393.23V115H355.198ZM396.987 115V60.4545H419.519C423.602 60.4545 427.127 61.1914 430.092 62.6651C433.075 64.1211 435.374 66.2163 436.99 68.9506C438.606 71.6673 439.414 74.8899 439.414 78.6186C439.414 82.4006 438.588 85.6143 436.937 88.2599C435.286 90.8878 432.942 92.8942 429.906 94.2791C426.869 95.6463 423.274 96.3299 419.119 96.3299H404.87V85.9428H416.669C418.657 85.9428 420.318 85.6854 421.649 85.1705C422.999 84.6378 424.02 83.8388 424.712 82.7734C425.405 81.6903 425.751 80.3054 425.751 78.6186C425.751 76.9318 425.405 75.538 424.712 74.4371C424.02 73.3185 422.999 72.484 421.649 71.9336C420.3 71.3654 418.64 71.0813 416.669 71.0813H410.17V115H396.987ZM427.695 90.071L441.278 115H426.896L413.579 90.071H427.695ZM453.943 115H439.774L458.178 60.4545H475.73L494.133 115H479.964L467.154 74.1974H466.728L453.943 115ZM452.052 93.5334H481.669V103.548H452.052V93.5334ZM542.454 80.2166H529.138C528.96 78.8494 528.596 77.6154 528.046 76.5146C527.495 75.4137 526.767 74.4727 525.862 73.6914C524.956 72.9102 523.882 72.3153 522.639 71.907C521.414 71.4808 520.056 71.2678 518.564 71.2678C515.919 71.2678 513.637 71.9158 511.719 73.212C509.819 74.5082 508.355 76.3814 507.325 78.8317C506.313 81.282 505.807 84.2472 505.807 87.7273C505.807 91.3494 506.322 94.3857 507.351 96.8359C508.399 99.2685 509.864 101.106 511.746 102.349C513.646 103.574 515.892 104.187 518.484 104.187C519.94 104.187 521.263 104 522.453 103.627C523.66 103.255 524.716 102.713 525.622 102.003C526.545 101.275 527.3 100.396 527.886 99.3661C528.49 98.3185 528.907 97.1378 529.138 95.8239L542.454 95.9038C542.224 98.3185 541.522 100.698 540.35 103.042C539.196 105.385 537.607 107.525 535.583 109.46C533.559 111.378 531.091 112.905 528.179 114.041C525.285 115.178 521.964 115.746 518.218 115.746C513.282 115.746 508.861 114.663 504.954 112.496C501.066 110.312 497.994 107.134 495.739 102.962C493.484 98.7891 492.357 93.7109 492.357 87.7273C492.357 81.7259 493.502 76.6388 495.792 72.4663C498.083 68.2937 501.181 65.1243 505.088 62.9581C508.994 60.7919 513.371 59.7088 518.218 59.7088C521.52 59.7088 524.574 60.1705 527.38 61.0938C530.185 61.9993 532.653 63.331 534.784 65.0888C536.915 66.8288 538.646 68.9684 539.977 71.5075C541.309 74.0465 542.135 76.9496 542.454 80.2166ZM543.714 71.1612V60.4545H589.816V71.1612H573.277V115H560.28V71.1612H543.714Z" fill="#F1F5F9"/>
</svg>
