<svg width="603" height="164" viewBox="0 0 603 164" fill="none" xmlns="http://www.w3.org/2000/svg">
<path d="M115.385 55.6932L84.1151 37.5795C81.1446 35.8847 77.8468 35 74.5 35C71.1532 35 67.8554 35.8847 64.8849 37.5795L33.6152 55.6932C30.7753 57.2414 28.3767 59.6169 26.6812 62.5606C24.9856 65.5044 24.0582 68.9031 24 72.3863V108.613C24.0582 112.097 24.9856 115.496 26.6812 118.439C28.3767 121.383 30.7753 123.759 33.6152 125.307L64.8849 143.42C67.8554 145.115 71.1532 146 74.5 146C77.8468 146 81.1446 145.115 84.1151 143.42L115.385 125.307C118.225 123.759 120.623 121.383 122.319 118.439C124.014 115.496 124.942 112.097 125 108.613V72.3863C124.942 68.9031 124.014 65.5044 122.319 62.5606C120.623 59.6169 118.225 57.2414 115.385 55.6932ZM109.325 120.334H39.7156C32.7062 120.334 28.3026 112.698 31.8174 106.616L66.6019 46.1036C67.4841 44.698 68.6638 43.5489 70.0397 42.7551C71.4155 41.9613 72.946 41.5466 74.5 41.5466C76.054 41.5466 77.5845 41.9613 78.9603 42.7551C80.3362 43.5489 81.5159 44.698 82.3981 46.1036L117.183 106.616C120.697 112.698 116.294 120.334 109.284 120.334H109.325Z" fill="#272A2D"/>
<path d="M157.415 70.1662V61.5455H198.031V70.1662H182.891V111H172.555V70.1662H157.415ZM204.72 111V61.5455H238.044V70.1662H215.176V81.9503H236.33V90.571H215.176V102.379H238.141V111H204.72ZM273.185 75.7685C272.992 73.8205 272.163 72.3073 270.698 71.2287C269.233 70.1501 267.245 69.6108 264.733 69.6108C263.027 69.6108 261.586 69.8523 260.411 70.3352C259.236 70.8021 258.334 71.4541 257.706 72.2912C257.095 73.1283 256.789 74.0781 256.789 75.1406C256.757 76.026 256.942 76.7988 257.344 77.4588C257.763 78.1188 258.334 78.6903 259.059 79.1733C259.783 79.6402 260.62 80.0507 261.57 80.4048C262.52 80.7429 263.534 81.0327 264.613 81.2741L269.056 82.3366C271.213 82.8196 273.193 83.4635 274.996 84.2685C276.799 85.0734 278.361 86.0634 279.681 87.2386C281.001 88.4138 282.023 89.7983 282.748 91.392C283.488 92.9858 283.866 94.813 283.882 96.8736C283.866 99.9001 283.094 102.524 281.564 104.746C280.051 106.951 277.862 108.666 274.996 109.889C272.147 111.097 268.71 111.7 264.685 111.7C260.693 111.7 257.215 111.089 254.253 109.865C251.307 108.642 249.005 106.83 247.347 104.432C245.705 102.017 244.844 99.0308 244.763 95.473H254.881C254.994 97.1312 255.469 98.5156 256.306 99.6264C257.159 100.721 258.294 101.55 259.711 102.114C261.143 102.661 262.761 102.935 264.564 102.935C266.335 102.935 267.873 102.677 269.176 102.162C270.497 101.647 271.519 100.93 272.243 100.013C272.968 99.0952 273.33 98.0407 273.33 96.8494C273.33 95.7386 273 94.8049 272.34 94.0483C271.696 93.2917 270.746 92.6477 269.49 92.1165C268.251 91.5852 266.73 91.1023 264.926 90.6676L259.542 89.3153C255.372 88.3011 252.08 86.7154 249.665 84.5582C247.25 82.401 246.051 79.4953 246.067 75.8409C246.051 72.8466 246.848 70.2306 248.458 67.9929C250.084 65.7552 252.313 64.0085 255.147 62.7528C257.98 61.4972 261.2 60.8693 264.806 60.8693C268.476 60.8693 271.68 61.4972 274.417 62.7528C277.169 64.0085 279.31 65.7552 280.84 67.9929C282.369 70.2306 283.158 72.8224 283.206 75.7685H273.185ZM317.744 75.7685C317.55 73.8205 316.721 72.3073 315.256 71.2287C313.791 70.1501 311.803 69.6108 309.292 69.6108C307.585 69.6108 306.145 69.8523 304.969 70.3352C303.794 70.8021 302.893 71.4541 302.265 72.2912C301.653 73.1283 301.347 74.0781 301.347 75.1406C301.315 76.026 301.5 76.7988 301.903 77.4588C302.321 78.1188 302.893 78.6903 303.617 79.1733C304.342 79.6402 305.179 80.0507 306.129 80.4048C307.078 80.7429 308.093 81.0327 309.171 81.2741L313.614 82.3366C315.772 82.8196 317.752 83.4635 319.555 84.2685C321.358 85.0734 322.919 86.0634 324.239 87.2386C325.559 88.4138 326.582 89.7983 327.306 91.392C328.047 92.9858 328.425 94.813 328.441 96.8736C328.425 99.9001 327.652 102.524 326.123 104.746C324.61 106.951 322.42 108.666 319.555 109.889C316.705 111.097 313.268 111.7 309.244 111.7C305.251 111.7 301.774 111.089 298.812 109.865C295.866 108.642 293.564 106.83 291.906 104.432C290.263 102.017 289.402 99.0308 289.322 95.473H299.44C299.552 97.1312 300.027 98.5156 300.864 99.6264C301.718 100.721 302.853 101.55 304.269 102.114C305.702 102.661 307.32 102.935 309.123 102.935C310.894 102.935 312.431 102.677 313.735 102.162C315.055 101.647 316.077 100.93 316.802 100.013C317.526 99.0952 317.888 98.0407 317.888 96.8494C317.888 95.7386 317.558 94.8049 316.898 94.0483C316.254 93.2917 315.305 92.6477 314.049 92.1165C312.809 91.5852 311.288 91.1023 309.485 90.6676L304.1 89.3153C299.931 88.3011 296.638 86.7154 294.224 84.5582C291.809 82.401 290.61 79.4953 290.626 75.8409C290.61 72.8466 291.406 70.2306 293.016 67.9929C294.642 65.7552 296.872 64.0085 299.705 62.7528C302.539 61.4972 305.758 60.8693 309.364 60.8693C313.035 60.8693 316.238 61.4972 318.975 62.7528C321.728 64.0085 323.869 65.7552 325.398 67.9929C326.928 70.2306 327.717 72.8224 327.765 75.7685H317.744ZM335.474 111V61.5455H368.798V70.1662H345.93V81.9503H367.083V90.571H345.93V102.379H368.895V111H335.474ZM377.111 111V61.5455H396.622C400.357 61.5455 403.545 62.2135 406.185 63.5497C408.841 64.8698 410.861 66.7453 412.246 69.1761C413.646 71.5909 414.347 74.4323 414.347 77.7003C414.347 80.9844 413.638 83.8097 412.222 86.1761C410.805 88.5265 408.752 90.3295 406.064 91.5852C403.392 92.8409 400.156 93.4688 396.357 93.4688H383.293V85.0653H394.666C396.662 85.0653 398.321 84.7917 399.641 84.2443C400.961 83.697 401.943 82.8759 402.587 81.7812C403.247 80.6866 403.577 79.3262 403.577 77.7003C403.577 76.0582 403.247 74.6738 402.587 73.5469C401.943 72.42 400.953 71.5668 399.616 70.9872C398.296 70.3916 396.63 70.0938 394.618 70.0938H387.567V111H377.111ZM403.818 88.4943L416.109 111H404.567L392.541 88.4943H403.818ZM430.26 111H419.055L436.128 61.5455H449.602L466.651 111H455.446L443.058 72.8466H442.672L430.26 111ZM429.56 91.5611H456.026V99.723H429.56V91.5611ZM513.914 78.8594H503.337C503.144 77.491 502.749 76.2756 502.154 75.2131C501.558 74.1345 500.793 73.2169 499.86 72.4602C498.926 71.7036 497.847 71.1241 496.624 70.7216C495.417 70.3191 494.105 70.1179 492.688 70.1179C490.128 70.1179 487.899 70.7538 485.999 72.0256C484.099 73.2812 482.626 75.1165 481.58 77.5312C480.533 79.9299 480.01 82.8437 480.01 86.2727C480.01 89.7983 480.533 92.7604 481.58 95.1591C482.642 97.5578 484.123 99.3688 486.023 100.592C487.923 101.816 490.12 102.428 492.615 102.428C494.016 102.428 495.312 102.242 496.503 101.872C497.711 101.502 498.781 100.963 499.715 100.254C500.649 99.5298 501.421 98.6525 502.033 97.6222C502.661 96.5919 503.096 95.4167 503.337 94.0966L513.914 94.1449C513.64 96.4148 512.956 98.6042 511.861 100.713C510.783 102.806 509.326 104.681 507.49 106.339C505.671 107.982 503.498 109.286 500.971 110.251C498.459 111.201 495.618 111.676 492.446 111.676C488.035 111.676 484.091 110.678 480.614 108.682C477.153 106.686 474.416 103.796 472.404 100.013C470.408 96.2296 469.409 91.6496 469.409 86.2727C469.409 80.8797 470.424 76.2917 472.452 72.5085C474.48 68.7254 477.233 65.8437 480.711 63.8636C484.188 61.8674 488.1 60.8693 492.446 60.8693C495.312 60.8693 497.968 61.2718 500.415 62.0767C502.878 62.8816 505.06 64.0568 506.959 65.6023C508.859 67.1316 510.404 69.0071 511.596 71.2287C512.803 73.4503 513.576 75.9938 513.914 78.8594ZM519.528 70.1662V61.5455H560.145V70.1662H545.004V111H534.669V70.1662H519.528Z" fill="#272A2D"/>
</svg>
