<svg width="603" height="191" viewBox="0 0 603 191" fill="none" xmlns="http://www.w3.org/2000/svg">
<path d="M111.528 57.5372L77.4719 37.8094C74.2367 35.9636 70.6451 35 67 35C63.3549 35 59.7633 35.9636 56.5281 37.8094L22.472 57.5372C19.379 59.2233 16.7667 61.8105 14.9201 65.0165C13.0734 68.2226 12.0634 71.9241 12 75.7177V115.173C12.0634 118.967 13.0734 122.669 14.9201 125.874C16.7667 129.081 19.379 131.668 22.472 133.354L56.5281 153.082C59.7633 154.927 63.3549 155.891 67 155.891C70.6451 155.891 74.2367 154.927 77.4719 153.082L111.528 133.354C114.621 131.668 117.233 129.081 119.08 125.874C120.926 122.669 121.937 118.967 122 115.173V75.7177C121.937 71.9241 120.926 68.2226 119.08 65.0165C117.233 61.8105 114.621 59.2233 111.528 57.5372ZM104.928 127.938H29.116C21.482 127.938 16.686 119.622 20.514 112.997L58.3981 47.0931C59.3589 45.5622 60.6437 44.3107 62.1422 43.4461C63.6407 42.5816 65.3076 42.1299 67 42.1299C68.6924 42.1299 70.3593 42.5816 71.8578 43.4461C73.3563 44.3107 74.6411 45.5622 75.6019 47.0931L113.486 112.997C117.314 119.622 112.518 127.938 104.884 127.938H104.928Z" fill="#F1F5F9"/>
<path d="M145.5 73.2386V61.8182H194.676V73.2386H177.034V120H163.17V73.2386H145.5ZM196.744 120V61.8182H237.312V73.2386H210.807V85.1705H235.238V96.6193H210.807V108.58H237.312V120H196.744ZM272.768 79.2614C272.579 77.178 271.736 75.5587 270.239 74.4034C268.762 73.2292 266.65 72.642 263.904 72.642C262.086 72.642 260.571 72.8788 259.359 73.3523C258.147 73.8258 257.238 74.4792 256.632 75.3125C256.025 76.1269 255.713 77.0644 255.694 78.125C255.656 78.9962 255.827 79.7633 256.205 80.4261C256.603 81.089 257.171 81.6761 257.91 82.1875C258.668 82.6799 259.577 83.1155 260.637 83.4943C261.698 83.8731 262.891 84.2045 264.217 84.4886L269.217 85.625C272.096 86.25 274.633 87.0833 276.83 88.125C279.046 89.1667 280.902 90.4072 282.399 91.8466C283.914 93.286 285.06 94.9432 285.836 96.8182C286.613 98.6932 287.01 100.795 287.029 103.125C287.01 106.799 286.082 109.953 284.245 112.585C282.408 115.218 279.766 117.235 276.319 118.636C272.891 120.038 268.753 120.739 263.904 120.739C259.037 120.739 254.794 120.009 251.177 118.551C247.56 117.093 244.747 114.877 242.739 111.903C240.732 108.93 239.7 105.17 239.643 100.625H253.109C253.222 102.5 253.724 104.062 254.614 105.312C255.505 106.562 256.726 107.509 258.279 108.153C259.851 108.797 261.669 109.119 263.734 109.119C265.628 109.119 267.238 108.864 268.563 108.352C269.908 107.841 270.94 107.131 271.66 106.222C272.38 105.312 272.749 104.271 272.768 103.097C272.749 101.998 272.408 101.061 271.745 100.284C271.082 99.4886 270.06 98.8068 268.677 98.2386C267.313 97.6515 265.571 97.1117 263.45 96.6193L257.37 95.1989C252.332 94.0436 248.364 92.178 245.467 89.6023C242.569 87.0076 241.13 83.5038 241.149 79.0909C241.13 75.4924 242.096 72.339 244.046 69.6307C245.997 66.9223 248.696 64.8106 252.143 63.2955C255.59 61.7803 259.52 61.0227 263.933 61.0227C268.44 61.0227 272.351 61.7898 275.666 63.3239C278.999 64.839 281.584 66.9697 283.421 69.7159C285.258 72.4621 286.196 75.6439 286.234 79.2614H272.768ZM320.78 79.2614C320.591 77.178 319.748 75.5587 318.252 74.4034C316.775 73.2292 314.663 72.642 311.917 72.642C310.099 72.642 308.583 72.8788 307.371 73.3523C306.159 73.8258 305.25 74.4792 304.644 75.3125C304.038 76.1269 303.725 77.0644 303.707 78.125C303.669 78.9962 303.839 79.7633 304.218 80.4261C304.616 81.089 305.184 81.6761 305.922 82.1875C306.68 82.6799 307.589 83.1155 308.65 83.4943C309.71 83.8731 310.904 84.2045 312.229 84.4886L317.229 85.625C320.108 86.25 322.646 87.0833 324.843 88.125C327.059 89.1667 328.915 90.4072 330.411 91.8466C331.926 93.286 333.072 94.9432 333.849 96.8182C334.625 98.6932 335.023 100.795 335.042 103.125C335.023 106.799 334.095 109.953 332.258 112.585C330.421 115.218 327.779 117.235 324.332 118.636C320.904 120.038 316.765 120.739 311.917 120.739C307.049 120.739 302.807 120.009 299.189 118.551C295.572 117.093 292.76 114.877 290.752 111.903C288.744 108.93 287.712 105.17 287.655 100.625H301.121C301.235 102.5 301.737 104.062 302.627 105.312C303.517 106.562 304.739 107.509 306.292 108.153C307.864 108.797 309.682 109.119 311.746 109.119C313.64 109.119 315.25 108.864 316.576 108.352C317.921 107.841 318.953 107.131 319.672 106.222C320.392 105.312 320.761 104.271 320.78 103.097C320.761 101.998 320.421 101.061 319.758 100.284C319.095 99.4886 318.072 98.8068 316.689 98.2386C315.326 97.6515 313.583 97.1117 311.462 96.6193L305.383 95.1989C300.345 94.0436 296.377 92.178 293.479 89.6023C290.582 87.0076 289.142 83.5038 289.161 79.0909C289.142 75.4924 290.108 72.339 292.059 69.6307C294.01 66.9223 296.708 64.8106 300.155 63.2955C303.602 61.7803 307.532 61.0227 311.945 61.0227C316.453 61.0227 320.364 61.7898 323.678 63.3239C327.011 64.839 329.597 66.9697 331.434 69.7159C333.271 72.4621 334.208 75.6439 334.246 79.2614H320.78ZM337.344 120V61.8182H377.912V73.2386H351.407V85.1705H375.838V96.6193H351.407V108.58H377.912V120H337.344ZM381.919 120V61.8182H405.953C410.309 61.8182 414.069 62.6042 417.232 64.1761C420.413 65.7292 422.866 67.964 424.589 70.8807C426.313 73.7784 427.175 77.2159 427.175 81.1932C427.175 85.2273 426.294 88.6553 424.533 91.4773C422.771 94.2803 420.271 96.4205 417.033 97.8977C413.794 99.3561 409.959 100.085 405.527 100.085H390.328V89.0057H402.913C405.035 89.0057 406.805 88.7311 408.226 88.1818C409.665 87.6136 410.754 86.7614 411.493 85.625C412.232 84.4697 412.601 82.9924 412.601 81.1932C412.601 79.3939 412.232 77.9072 411.493 76.733C410.754 75.5398 409.665 74.6496 408.226 74.0625C406.786 73.4564 405.016 73.1534 402.913 73.1534H395.982V120H381.919ZM414.675 93.4091L429.163 120H413.822L399.618 93.4091H414.675ZM442.673 120H427.559L447.19 61.8182H465.912L485.542 120H470.429L456.764 76.4773H456.309L442.673 120ZM440.656 97.1023H472.247V107.784H440.656V97.1023ZM537.085 82.8977H522.88C522.691 81.4394 522.302 80.1231 521.715 78.9489C521.128 77.7746 520.352 76.7708 519.386 75.9375C518.42 75.1042 517.274 74.4697 515.948 74.0341C514.641 73.5795 513.193 73.3523 511.602 73.3523C508.78 73.3523 506.346 74.0436 504.301 75.4261C502.274 76.8087 500.712 78.8068 499.613 81.4205C498.534 84.0341 497.994 87.197 497.994 90.9091C497.994 94.7727 498.543 98.0114 499.641 100.625C500.759 103.22 502.321 105.18 504.329 106.506C506.355 107.812 508.751 108.466 511.516 108.466C513.07 108.466 514.48 108.267 515.749 107.869C517.037 107.472 518.164 106.894 519.13 106.136C520.115 105.36 520.92 104.422 521.545 103.324C522.189 102.206 522.634 100.947 522.88 99.5455L537.085 99.6307C536.838 102.206 536.09 104.744 534.84 107.244C533.609 109.744 531.914 112.027 529.755 114.091C527.596 116.136 524.963 117.765 521.857 118.977C518.77 120.189 515.229 120.795 511.232 120.795C505.967 120.795 501.251 119.64 497.085 117.33C492.937 115 489.66 111.61 487.255 107.159C484.85 102.708 483.647 97.2917 483.647 90.9091C483.647 84.5076 484.869 79.0814 487.312 74.6307C489.755 70.1799 493.06 66.7992 497.227 64.4886C501.393 62.178 506.062 61.0227 511.232 61.0227C514.755 61.0227 518.013 61.5152 521.005 62.5C523.998 63.4659 526.63 64.8864 528.903 66.7614C531.176 68.6174 533.022 70.8996 534.443 73.608C535.863 76.3163 536.744 79.4129 537.085 82.8977ZM538.428 73.2386V61.8182H587.604V73.2386H569.962V120H556.099V73.2386H538.428Z" fill="#F1F5F9"/>
</svg>
